<svg xmlns="http://www.w3.org/2000/svg" xmlns:xlink="http://www.w3.org/1999/xlink" width="434" zoomAndPan="magnify" viewBox="0 0 325.5 371.249998" height="495" preserveAspectRatio="xMidYMid meet" version="1.0"><defs><clipPath id="ba76714d15"><path d="M 0.078125 0.828125 L 323.847656 0.828125 L 323.847656 370.5 L 0.078125 370.5 Z M 0.078125 0.828125 " clip-rule="nonzero"/></clipPath></defs><g clip-path="url(#ba76714d15)"><path fill="#fb8622" d="M 8.875 158.011719 C 4.085938 158.011719 0.199219 154.125 0.199219 149.339844 C 0.199219 144.550781 4.085938 140.683594 8.875 140.683594 L 68.339844 140.683594 C 73.128906 140.683594 76.996094 144.566406 76.996094 149.339844 C 76.996094 154.125 73.109375 158.011719 68.339844 158.011719 Z M 8.875 93.949219 C 4.085938 93.949219 0.199219 90.0625 0.199219 85.273438 C 0.199219 80.488281 4.085938 76.601562 8.875 76.601562 L 112.160156 76.601562 C 116.945312 76.601562 120.832031 80.488281 120.832031 85.273438 C 120.832031 90.0625 116.945312 93.949219 112.160156 93.949219 Z M 8.875 29.886719 C 4.085938 29.886719 0.199219 26 0.199219 21.210938 C 0.199219 16.421875 4.085938 12.539062 8.875 12.539062 L 155.996094 12.539062 C 160.785156 12.539062 164.667969 16.421875 164.667969 21.210938 C 164.667969 26 160.785156 29.886719 155.996094 29.886719 Z M 79.496094 205.976562 L 216.917969 5.097656 C 218.429688 2.546875 221.203125 0.84375 224.378906 0.84375 C 229.167969 0.84375 233.035156 4.730469 233.035156 9.519531 L 233.035156 151.886719 L 315.105469 151.90625 C 316.789062 151.90625 318.488281 152.390625 319.980469 153.414062 C 323.917969 156.121094 324.941406 161.480469 322.253906 165.4375 L 184.828125 366.320312 C 183.316406 368.867188 180.542969 370.570312 177.367188 370.570312 C 172.578125 370.570312 168.695312 366.683594 168.695312 361.894531 L 168.695312 219.527344 L 86.640625 219.507812 C 84.957031 219.507812 83.257812 219.023438 81.765625 218 C 77.828125 215.292969 76.804688 209.933594 79.496094 205.976562 Z M 79.496094 205.976562 " fill-opacity="1" fill-rule="evenodd"/></g></svg>