<svg xmlns="http://www.w3.org/2000/svg" xmlns:xlink="http://www.w3.org/1999/xlink" width="434" zoomAndPan="magnify" viewBox="0 0 325.5 529.499967" height="706" preserveAspectRatio="xMidYMid meet" version="1.0"><defs><clipPath id="29c4090bda"><path d="M 0 4 L 325 4 L 325 528.84375 L 0 528.84375 Z M 0 4 " clip-rule="nonzero"/></clipPath></defs><g clip-path="url(#29c4090bda)"><path fill="#fb8622" d="M 163 528.757812 C 151.003906 469.871094 129.851562 420.859375 104.238281 375.441406 C 85.234375 341.753906 63.222656 310.65625 42.851562 277.984375 C 36.054688 267.078125 30.1875 255.554688 23.652344 244.238281 C 10.589844 221.605469 -0.00390625 195.363281 0.667969 161.324219 C 1.328125 128.070312 10.945312 101.390625 24.816406 79.578125 C 47.628906 43.699219 85.839844 14.285156 137.109375 6.554688 C 179.03125 0.234375 218.335938 10.914062 246.207031 27.210938 C 268.980469 40.527344 286.621094 58.320312 300.027344 79.285156 C 314.019531 101.167969 323.65625 127.023438 324.464844 160.742188 C 324.878906 178.019531 322.050781 194.019531 318.0625 207.292969 C 314.03125 220.722656 307.546875 231.953125 301.773438 243.945312 C 290.507812 267.359375 276.382812 288.808594 262.207031 310.273438 C 219.984375 374.210938 180.355469 439.414062 163.003906 528.757812 Z M 163 528.757812 " fill-opacity="1" fill-rule="evenodd"/></g><path fill="#ffffff" d="M 219.304688 160.957031 C 219.304688 162.816406 219.210938 164.667969 219.03125 166.519531 C 218.847656 168.367188 218.574219 170.203125 218.214844 172.023438 C 217.851562 173.847656 217.398438 175.648438 216.859375 177.425781 C 216.320312 179.203125 215.695312 180.949219 214.984375 182.667969 C 214.273438 184.382812 213.480469 186.0625 212.605469 187.699219 C 211.730469 189.339844 210.773438 190.929688 209.742188 192.476562 C 208.710938 194.019531 207.605469 195.511719 206.425781 196.949219 C 205.246094 198.382812 204 199.757812 202.6875 201.074219 C 201.375 202.386719 200 203.632812 198.5625 204.8125 C 197.125 205.992188 195.636719 207.097656 194.089844 208.128906 C 192.546875 209.160156 190.953125 210.113281 189.316406 210.992188 C 187.675781 211.867188 186 212.660156 184.28125 213.371094 C 182.566406 214.082031 180.816406 214.707031 179.039062 215.246094 C 177.261719 215.785156 175.460938 216.238281 173.640625 216.597656 C 171.816406 216.960938 169.980469 217.234375 168.132812 217.417969 C 166.28125 217.597656 164.429688 217.6875 162.570312 217.6875 C 160.714844 217.6875 158.859375 217.597656 157.011719 217.417969 C 155.160156 217.234375 153.324219 216.960938 151.503906 216.597656 C 149.679688 216.238281 147.882812 215.785156 146.101562 215.246094 C 144.324219 214.707031 142.578125 214.082031 140.859375 213.371094 C 139.144531 212.660156 137.464844 211.867188 135.828125 210.992188 C 134.191406 210.113281 132.597656 209.160156 131.054688 208.128906 C 129.507812 207.097656 128.015625 205.992188 126.582031 204.8125 C 125.144531 203.632812 123.769531 202.386719 122.457031 201.074219 C 121.140625 199.757812 119.894531 198.382812 118.71875 196.949219 C 117.539062 195.511719 116.433594 194.019531 115.402344 192.476562 C 114.367188 190.929688 113.414062 189.339844 112.539062 187.699219 C 111.664062 186.0625 110.867188 184.382812 110.15625 182.667969 C 109.445312 180.949219 108.820312 179.203125 108.28125 177.425781 C 107.742188 175.648438 107.292969 173.847656 106.929688 172.023438 C 106.566406 170.203125 106.292969 168.367188 106.113281 166.519531 C 105.929688 164.667969 105.839844 162.816406 105.839844 160.957031 C 105.839844 159.097656 105.929688 157.246094 106.113281 155.394531 C 106.292969 153.546875 106.566406 151.710938 106.929688 149.890625 C 107.292969 148.066406 107.742188 146.265625 108.28125 144.488281 C 108.820312 142.710938 109.445312 140.964844 110.15625 139.246094 C 110.867188 137.53125 111.664062 135.851562 112.539062 134.214844 C 113.414062 132.574219 114.367188 130.984375 115.402344 129.4375 C 116.433594 127.894531 117.539062 126.402344 118.71875 124.964844 C 119.894531 123.53125 121.140625 122.15625 122.457031 120.839844 C 123.769531 119.527344 125.144531 118.28125 126.582031 117.101562 C 128.015625 115.925781 129.507812 114.816406 131.054688 113.785156 C 132.597656 112.753906 134.191406 111.800781 135.828125 110.925781 C 137.464844 110.046875 139.144531 109.253906 140.859375 108.542969 C 142.578125 107.832031 144.324219 107.207031 146.101562 106.667969 C 147.882812 106.128906 149.679688 105.675781 151.503906 105.316406 C 153.324219 104.953125 155.160156 104.679688 157.011719 104.5 C 158.859375 104.316406 160.714844 104.226562 162.570312 104.226562 C 164.429688 104.226562 166.28125 104.316406 168.132812 104.5 C 169.980469 104.679688 171.816406 104.953125 173.640625 105.316406 C 175.460938 105.675781 177.261719 106.128906 179.039062 106.667969 C 180.816406 107.207031 182.566406 107.832031 184.28125 108.542969 C 186 109.253906 187.675781 110.046875 189.316406 110.925781 C 190.953125 111.800781 192.546875 112.753906 194.089844 113.785156 C 195.636719 114.816406 197.125 115.925781 198.5625 117.101562 C 200 118.28125 201.375 119.527344 202.6875 120.839844 C 204 122.15625 205.246094 123.53125 206.425781 124.964844 C 207.605469 126.402344 208.710938 127.894531 209.742188 129.4375 C 210.773438 130.984375 211.730469 132.574219 212.605469 134.214844 C 213.480469 135.851562 214.273438 137.53125 214.984375 139.246094 C 215.695312 140.964844 216.320312 142.710938 216.859375 144.488281 C 217.398438 146.265625 217.851562 148.066406 218.214844 149.890625 C 218.574219 151.710938 218.847656 153.546875 219.03125 155.394531 C 219.210938 157.246094 219.304688 159.097656 219.304688 160.957031 Z M 219.304688 160.957031 " fill-opacity="1" fill-rule="nonzero"/></svg>